PathFileType	4	(X/Y/Z)	C:\Git\research_data\Projects\squatting_fais\c3dfiles\036\SJ_pre1\markers_experimental.trc
DataRate	CameraRate	NumFrames	NumMarkers	Units	OrigDataRate	OrigDataStartFrame	OrigNumFrames
200.000000	200.000000	4	62	mm	200.000000	1650	2200
Frame#	Time	FHD			LBHD			RBHD			C7			T10			CLAV			LSHO			LUUPA			LMUPA			LDUPA			LLEP			LMEP			LRAD			LUL			LRFIN			RSHO			RUPA1			RMUPA			RDUPA			RLEP			RMEP			RRAD			RUL			RUFIN			LASI			RASI			USACR			LSACR			RSACR			LTHI1			LTHI2			LTHI3			LTHI4			LLFC			LMFC			LTIB1			LTIB2			LTIB3			LTIB4			LLMAL			LMMAL			LHEE			LMT1			LMT2			LMT5			RTHI			RTHI2			RTHI3			RTHI4			RLFC			RMFC			RTIB1			RTIB2			RTIB3			RTIB4			RLMAL			RMMAL			RHEE			RMT1			RMT2			RMT5			*61			
		X1	Y1	Z1	X2	Y2	Z2	X3	Y3	Z3	X4	Y4	Z4	X5	Y5	Z5	X6	Y6	Z6	X7	Y7	Z7	X8	Y8	Z8	X9	Y9	Z9	X10	Y10	Z10	X11	Y11	Z11	X12	Y12	Z12	X13	Y13	Z13	X14	Y14	Z14	X15	Y15	Z15	X16	Y16	Z16	X17	Y17	Z17	X18	Y18	Z18	X19	Y19	Z19	X20	Y20	Z20	X21	Y21	Z21	X22	Y22	Z22	X23	Y23	Z23	X24	Y24	Z24	X25	Y25	Z25	X26	Y26	Z26	X27	Y27	Z27	X28	Y28	Z28	X29	Y29	Z29	X30	Y30	Z30	X31	Y31	Z31	X32	Y32	Z32	X33	Y33	Z33	X34	Y34	Z34	X35	Y35	Z35	X36	Y36	Z36	X37	Y37	Z37	X38	Y38	Z38	X39	Y39	Z39	X40	Y40	Z40	X41	Y41	Z41	X42	Y42	Z42	X43	Y43	Z43	X44	Y44	Z44	X45	Y45	Z45	X46	Y46	Z46	X47	Y47	Z47	X48	Y48	Z48	X49	Y49	Z49	X50	Y50	Z50	X51	Y51	Z51	X52	Y52	Z52	X53	Y53	Z53	X54	Y54	Z54	X55	Y55	Z55	X56	Y56	Z56	X57	Y57	Z57	X58	Y58	Z58	X59	Y59	Z59	X60	Y60	Z60	X61	Y61	Z61	X62	Y62	Z62	

1651	8.25	-35.46283340454102	1470.499877929688	-899.7329711914065	-205.6745605468751	1404.570556640625	-947.0628051757815	-142.9805297851563	1426.927734375	-809.4694824218752	-237.667221069336	1320.668701171875	-903.741638183594	-312.2192687988282	1017.9375	-886.8326416015627	-97.70389556884768	1233.35302734375	-885.7187500000002	-134.7030639648438	1282.143310546875	-1029.857421875	-201.3785858154297	1173.109619140625	-1164.904174804688	-177.7720184326172	1128.935668945313	-1162.866821289063	-222.5538482666016	1117.647827148438	-1202.25537109375	-236.9268798828126	1062.755859375	-1217.79638671875	-299.7312011718751	1067.967407226563	-1191.518188476563	-173.2613525390625	846.6856689453127	-1145.4892578125	-211.9371185302735	872.8951416015627	-1092.1884765625	-183.7494354248047	823.0173950195315	-1055.600830078125	-149.4594116210938	1291.795776367188	-744.5468139648439	-205.4909973144532	1200.377319335938	-617.5950317382814	-171.7858276367188	1163.807739257813	-614.4909057617189	-210.3746948242188	1146.397338867188	-572.3558959960939	-215.0345306396485	1076.958618164063	-544.1842041015626	-282.7150268554688	1059.893310546875	-575.3876342773439	-194.7862701416016	881.0823364257815	-663.6996459960939	-149.4395294189453	860.9166259765627	-617.9729003906251	-177.4682312011719	828.3521728515627	-701.0047607421876	-162.6661071777344	802.9060058593752	-1007.172973632813	-171.1297149658203	818.4544067382815	-741.0184326171876	-338.8561706542969	932.194763183594	-886.2803955078127	-360.9225769042969	906.4249267578127	-911.189392089844	-359.3625183105469	912.0213623046877	-854.8594360351565	-224.9709472656251	697.2138671875001	-1091.68505859375	-166.2203369140625	638.3359375000001	-1094.185668945313	-128.5628204345703	656.6768798828126	-1072.869750976563	-171.9588928222657	579.8976440429689	-1097.81298828125	-140.7102355957032	436.1124877929689	-1097.804565429688	-124.7655105590821	387.2741699218751	-956.3973388671877	-119.4783020019532	248.8808593750001	-1045.48779296875	-152.8920135498047	227.8501739501954	-1123.762084960938	-135.2743225097657	211.2591705322266	-1085.548095703125	-173.2315521240235	136.4089965820313	-1067.75732421875	-246.8667907714844	84.65407562255861	-1137.087280273438	-232.3553009033204	79.26195526123048	-1051.986694335938	-308.0727844238282	58.47018051147462	-1105.01611328125	-118.4971771240235	51.33249282836915	-1071.134521484375	-105.7636795043946	54.17081451416017	-1118.420166015625	-144.4565887451172	35.72089385986329	-1169.602416992188	-262.8221130371094	630.6604614257814	-670.3914794921876	-203.6988983154297	599.0850219726564	-662.4992065429689	-175.0284729003907	615.4911499023439	-662.5717163085939	-189.1171264648438	517.9194946289064	-672.3557128906251	-132.5700073242188	420.7313537597657	-680.0365600585939	-94.0630340576172	422.8144836425782	-823.0051879882815	-121.3434295654297	261.9535217285157	-724.5372314453126	-212.4651489257813	211.6114959716797	-679.1252441406251	-173.7069549560547	196.9962615966797	-700.6791381835939	-181.4273223876953	148.8118286132813	-735.5177001953126	-291.6906127929688	84.74883270263673	-719.9313354492189	-247.2779083251954	80.77413940429689	-791.9600219726565	-334.8008117675782	58.31317520141603	-763.4403686523439	-137.8954162597657	48.17679595947267	-740.9648437500001	-147.9960632324219	54.68733596801759	-692.1244506835939	-195.4475250244141	35.50109863281251	-652.8777465820314	nan	nan	nan	
1652	8.255000000000001	-35.96678161621094	1472.926391601563	-899.138122558594	-205.6139526367188	1407.659790039063	-947.1485595703127	-143.8538055419922	1429.77294921875	-809.2940063476565	-238.4722290039063	1323.3515625	-903.3150024414065	-312.5180358886719	1020.615112304688	-887.1032714843752	-98.80479431152347	1236.396362304688	-885.7091064453127	-135.9741973876953	1285.518798828125	-1029.723999023438	-202.4163818359376	1176.159545898438	-1164.817504882813	-178.3817443847657	1131.983276367188	-1163.094604492188	-223.4522399902344	1120.705810546875	-1202.17822265625	-237.6928253173829	1065.7607421875	-1217.866577148438	-300.7818603515626	1070.787475585938	-1191.196411132813	-173.5401611328125	849.5252075195315	-1145.8671875	-211.8148803710938	875.6743164062502	-1092.392578125	-183.6203765869141	825.7996826171877	-1055.847900390625	-150.0714263916016	1294.107055664063	-744.1607055664064	-206.633041381836	1202.466186523438	-617.3908081054689	-172.8902130126953	1166.108642578125	-614.1447143554689	-211.5576171875001	1148.509643554688	-572.3273925781251	-216.2147521972657	1079.257690429688	-544.1228637695314	-283.6797485351563	1062.053466796875	-575.9353027343751	-195.1251220703126	883.468933105469	-664.4296264648439	-149.7023010253907	863.2779541015627	-618.6970214843751	-177.4775543212891	831.200866699219	-702.3081054687501	-161.7354125976563	806.3920898437502	-1007.218444824219	-171.3287811279297	821.2102661132815	-741.8497924804689	-338.8140563964844	934.8477783203127	-886.6851806640627	-360.7035827636719	909.0042114257815	-911.660827636719	-360.1431884765626	914.6829223632815	-855.7064208984377	-225.1288146972657	699.3319091796876	-1092.052368164063	-167.2940368652344	639.8378295898439	-1094.270385742188	-128.9411163330078	657.9647216796876	-1073.321411132813	-172.7028198242188	581.3918457031251	-1098.121948242188	-143.6208038330078	437.1329956054689	-1097.734741210938	-127.8080520629883	387.9216918945314	-956.8135986328127	-121.3382644653321	249.8479309082032	-1045.449462890625	-154.3632202148438	228.6474761962891	-1123.739868164063	-136.3265380859375	211.9235534667969	-1085.892333984375	-174.0240783691407	136.7301483154297	-1068.054077148438	-247.3646545410157	84.69161987304689	-1137.248657226563	-232.3616790771485	79.41406250000001	-1052.1337890625	-308.1021118164063	58.37144470214845	-1105.134765625	-118.6267013549805	51.45237350463869	-1071.090087890625	-105.8118438720703	54.27796173095705	-1118.463256835938	-144.3863677978516	35.66914749145509	-1169.556518554688	-263.2853393554688	633.7507934570314	-670.4060668945314	-204.792953491211	601.4414062500001	-663.0169677734376	-175.9053192138672	617.3367309570314	-662.9985961914064	-191.2299499511719	520.0772094726564	-672.5751953125001	-135.7130432128907	421.5589294433595	-680.5963134765626	-97.28005218505862	423.323944091797	-822.3836669921877	-122.7407379150391	263.0372619628907	-724.6300659179689	-213.7140502929688	211.9076843261719	-679.1289062500001	-175.1712951660157	197.4985504150391	-700.8858642578126	-182.1928863525391	149.3948516845703	-735.3810424804689	-292.0523681640626	84.53848266601564	-719.6353149414064	-247.4863739013672	80.93136596679689	-791.7058715820315	-335.1807861328126	58.22889328002931	-763.1593627929689	-137.9778594970703	48.37387466430665	-740.9967651367189	-148.0431823730469	54.69878387451173	-692.0963134765626	-195.5146484375001	35.44071960449219	-652.7859497070314	nan	nan	nan	
1653	8.26	-36.76717758178712	1475.486328125	-898.5281982421877	-206.3197021484376	1410.561157226563	-947.1832275390627	-144.6405029296875	1432.5634765625	-808.8149414062502	-239.8114929199219	1325.67919921875	-902.777770996094	-312.8609008789063	1023.244079589844	-887.3760986328127	-100.0876922607422	1239.447143554688	-885.565612792969	-137.2062683105469	1288.469116210938	-1029.679931640625	-203.6497039794922	1179.19384765625	-1164.842041015625	-179.4695434570313	1135.128173828125	-1162.953247070313	-224.803939819336	1123.868286132813	-1202.109497070313	-238.5893554687501	1068.732299804688	-1217.833862304688	-301.2552185058594	1073.402709960938	-1190.90380859375	-173.4230346679688	852.3686523437502	-1146.376220703125	-211.778060913086	878.3692626953127	-1092.58203125	-183.5146636962891	828.7383422851565	-1056.081909179688	-151.3263092041016	1296.420288085938	-743.8975219726564	-207.6563415527344	1204.751586914063	-617.2343139648439	-173.6566009521485	1168.19677734375	-614.2186279296876	-212.6719512939454	1150.584228515625	-572.2376098632814	-217.5200195312501	1081.282836914063	-543.9703979492189	-284.4118041992188	1063.90087890625	-576.6513061523439	-195.5505676269532	885.9812622070315	-665.1718139648439	-150.146713256836	865.8017578125002	-619.3540039062501	-177.4271087646485	833.964294433594	-703.4758300781251	-160.9456634521485	809.7982177734377	-1007.34716796875	-170.5390014648438	824.171081542969	-742.7098388671876	-338.7378540039063	937.460632324219	-887.121765136719	-360.4626159667969	911.6533203125002	-912.1711425781252	-359.8537902832032	917.1489868164065	-856.256042480469	-225.7742156982422	701.7525634765626	-1092.295532226563	-166.7958374023438	641.4979248046876	-1095.170043945313	-129.4785919189453	659.2262573242189	-1073.648803710938	-174.3232574462891	583.0789184570314	-1098.560791015625	-146.6491394042969	438.445770263672	-1097.493896484375	-131.3385620117188	388.7041625976564	-956.9539184570315	-123.0031356811524	250.7823028564454	-1045.525024414063	-156.3125	229.4763183593751	-1123.896850585938	-137.5774841308594	212.5973205566407	-1086.12548828125	-174.4012603759766	137.3453216552735	-1067.920776367188	-247.7754364013672	84.70507812500001	-1137.387817382813	-232.5818786621094	79.50103759765626	-1052.389282226563	-308.3053283691407	58.24635696411134	-1105.247802734375	-118.7732543945313	51.59646606445314	-1071.05859375	-105.8843612670899	54.41648483276369	-1118.446899414063	-144.314453125	35.66985702514649	-1169.539184570313	-264.0143737792969	636.6310424804689	-670.6774902343751	-205.9978637695313	603.5161132812501	-663.2648925781251	-176.9135894775391	619.1635131835939	-663.3356933593751	-193.5784912109376	522.1690063476564	-673.1152343750001	-138.9908599853516	422.3774414062501	-681.2162475585939	-100.526596069336	423.940643310547	-822.3092041015627	-124.581771850586	264.2453613281251	-724.6086425781251	-215.4107666015626	212.326644897461	-678.8657226562501	-176.433334350586	198.2429199218751	-700.7976684570314	-183.208724975586	150.3496551513672	-735.0974731445314	-292.2752075195313	84.42089080810548	-719.4606323242189	-247.7208709716797	81.15046691894533	-791.4982910156252	-335.3687133789063	58.04658126831056	-763.0358276367189	-137.9463348388672	48.67976379394533	-741.0216674804689	-147.9876861572266	54.69565200805665	-692.0486450195314	-195.5565795898438	35.41171264648438	-652.7400512695314	nan	nan	nan	
1654	8.265000000000001	-37.40637207031251	1478.028442382813	-897.9216308593752	-206.7405853271485	1413.43505859375	-947.1522216796877	-145.7960968017578	1435.361694335938	-808.5772705078127	-240.5799407958985	1328.2724609375	-902.5487060546877	-313.1811828613282	1025.85791015625	-887.569763183594	-100.7892761230469	1242.699829101563	-885.5381469726565	-137.8253936767578	1291.485961914063	-1029.518188476563	-204.7303161621094	1182.273803710938	-1164.787231445313	-180.3564758300782	1138.348999023438	-1163.18115234375	-225.5309143066407	1126.670043945313	-1202.037109375	-239.4193572998047	1071.550659179688	-1217.768188476563	-302.0733947753907	1075.9931640625	-1190.506103515625	-173.5938873291016	855.3741455078127	-1146.50634765625	-211.8170928955079	881.1380615234377	-1092.753540039063	-183.524658203125	831.6016235351565	-1056.226928710938	-151.9821929931641	1298.833618164063	-743.4246215820314	-208.7659301757813	1206.808715820313	-617.1047973632814	-174.7509460449219	1170.597412109375	-614.1804199218751	-213.8208312988282	1152.734375	-572.2512817382814	-218.5721588134766	1083.253540039063	-544.1638793945314	-285.1206665039063	1065.823120117188	-577.4321899414064	-196.0818481445313	888.578796386719	-666.0445556640626	-150.62548828125	868.179626464844	-620.2016601562501	-178.234375	836.8273925781252	-704.3934326171876	-160.4627990722657	813.0769042968752	-1007.239379882813	-170.6834411621094	827.0178222656252	-743.4261474609376	-338.5678100585938	940.1292114257815	-887.5808715820315	-356.3326721191407	913.1442871093752	-913.0750122070315	-360.1289367675782	919.7183227539065	-856.828796386719	-225.150863647461	703.5379638671876	-1093.109985351563	-168.2892608642578	643.1322631835939	-1095.251708984375	-130.3179321289063	660.6652221679689	-1074.352416992188	-175.4222869873047	584.6727294921876	-1098.880004882813	-148.8629608154297	439.5422668457032	-1097.393920898438	-134.7408142089844	389.736541748047	-957.3508911132815	-124.8169403076172	251.5543060302735	-1045.846801757813	-157.0243530273438	230.1246337890626	-1124.471435546875	-139.1314086914063	213.5700836181641	-1086.234252929688	-173.4721832275391	137.9731140136719	-1067.1416015625	-248.1331939697266	84.66978454589845	-1137.52099609375	-232.8144836425782	79.58467864990236	-1052.546020507813	-308.3747253417969	57.99980545043947	-1105.41357421875	-118.9069976806641	51.69916152954103	-1071.0703125	-105.9750061035157	54.58415985107423	-1118.4384765625	-145.1689758300782	35.8410758972168	-1169.545654296875	-264.5971984863282	639.2606201171876	-671.2370605468751	-207.2775115966797	605.3135375976564	-663.9009399414064	-177.8636627197266	620.9506225585939	-663.8836059570314	-195.7358398437501	524.0724487304689	-673.7025146484376	-142.212142944336	423.3194580078126	-681.8182373046876	-104.0440826416016	424.6691894531251	-822.4290161132815	-126.6596298217774	265.3261413574219	-724.5744018554689	-216.7496490478516	212.8153686523438	-678.8903808593751	-177.7854309082032	199.1837005615235	-700.5064697265626	-184.1165466308594	150.9942016601563	-735.1036376953126	-292.6445312500001	84.33258056640626	-719.2236938476564	-248.1526794433594	81.32958984375001	-791.2458496093752	-335.4336242675782	58.00292205810548	-762.9402465820314	-137.9593963623047	48.92976760864259	-741.0229492187501	-148.0566101074219	54.67473602294923	-692.1715698242189	-195.5785827636719	35.2494010925293	-652.6081542968751	nan	nan	nan	
